<svg id="Слой_1" data-name="Слой 1" xmlns="http://www.w3.org/2000/svg" viewBox="0 0 50 50"><defs><style>.cls-1{fill:#fff;}</style></defs><path class="cls-1" d="M15.85,11H35a4.64,4.64,0,0,1,.72.23,3.08,3.08,0,0,1,1.83,2.94c0,1.53,0,3,0,4.58,0,.48,0,.85.6.93l0,0a3.16,3.16,0,0,1,1.73,2.21v2.15A1.87,1.87,0,0,1,38,25.5c-.47,0-.47,0-.47.49v8.36a3,3,0,0,1-1.91,3,.7.7,0,0,0-.53.79A1.81,1.81,0,0,1,33.19,40H31a1.82,1.82,0,0,1-2-2c0-.42,0-.43-.42-.43H22.39c-.67,0-.58,0-.59.58A1.8,1.8,0,0,1,20,40H17.52A1.76,1.76,0,0,1,16,39a2.18,2.18,0,0,1-.23-1.23.31.31,0,0,0-.27-.36,2.56,2.56,0,0,1-.9-.46,3.14,3.14,0,0,1-1.26-2.62V26.06c0-.64,0-.56-.56-.56a1.81,1.81,0,0,1-1.82-1.82c0-.4,0-.81,0-1.21A3,3,0,0,1,13,19.59a.44.44,0,0,0,.34-.49c0-1.61,0-3.23,0-4.84a3.68,3.68,0,0,1,.09-.87A3.06,3.06,0,0,1,15.85,11ZM25.4,27.84c2.58,0,5.17,0,7.75,0A1.73,1.73,0,0,0,35,26c0-2,0-4,0-6a1.71,1.71,0,0,0-1.5-1.69,4.3,4.3,0,0,0-.62,0H17.78a1.85,1.85,0,0,0-2,2c0,1.89,0,3.77,0,5.66a2.38,2.38,0,0,0,0,.59,1.77,1.77,0,0,0,1.82,1.35ZM25.4,17h0c2.25,0,4.5,0,6.76,0a1.73,1.73,0,0,0,1.6-2.11,1.76,1.76,0,0,0-1.83-1.41H18.68a1.77,1.77,0,0,0-1.63,2.16A1.72,1.72,0,0,0,18.81,17ZM18.77,30.35A1.75,1.75,0,0,0,17,32.1a1.77,1.77,0,1,0,3.53,0A1.74,1.74,0,0,0,18.77,30.35Zm11.51,1.77A1.75,1.75,0,0,0,32,33.88a1.8,1.8,0,0,0,1.78-1.78A1.76,1.76,0,0,0,32,30.35,1.73,1.73,0,0,0,30.28,32.12Z"/></svg>