<svg id="Слой_1" data-name="Слой 1" xmlns="http://www.w3.org/2000/svg" viewBox="0 0 50 50"><defs><style>.cls-1{fill:#c1272d;}</style></defs><path class="cls-1" d="M24.66,49c-1.49-1.84-2.89-3.74-4.28-5.65A139.71,139.71,0,0,1,12.22,31a48.85,48.85,0,0,1-4.15-8.85,13.38,13.38,0,0,1,.42-9.33,16.29,16.29,0,0,1,8-8.78A17,17,0,0,1,27.64,2.29C34.43,3.54,39,7.36,41.19,13.57a12.93,12.93,0,0,1,0,9,55,55,0,0,1-4.67,9.53A167.92,167.92,0,0,1,24.76,49Zm0-36.51a6.13,6.13,0,0,0-6.28,6,6.08,6.08,0,0,0,6.29,5.95,6.09,6.09,0,0,0,6.29-6A6.16,6.16,0,0,0,24.7,12.49Z"/></svg>